PathFileType	4	(X/Y/Z)	C:/Users/beibeiliu/ov580/test_trc\sequence.8_training_dense_right.trc
DataRate	CameraRate	NumFrames	NumMarkers	Units	OrigDataRate	OrigDataStartFrame	OrigNumFrames
120	120	16	19	mm	120	59	87
Frame#	Time	ThumbCMC			ThumbMCP			ThumbIP			ThumbTip			IndexMCP			IndexPIP			IndexTip			MiddleMCP			MiddlePIP			MiddleTip			RingMCP			RingPIP			RingTip			PinkyMCP			PinkyPIP			PinkyTip			BackHand1			BackHand2			BackHand3	
		X0	Y0	Z0	X1	Y1	Z1	X2	Y2	Z2	X3	Y3	Z3	X4	Y4	Z4	X5	Y5	Z5	X6	Y6	Z6	X7	Y7	Z7	X8	Y8	Z8	X9	Y9	Z9	X10	Y10	Z10	X11	Y11	Z11	X12	Y12	Z12	X13	Y13	Z13	X14	Y14	Z14	X15	Y15	Z15	X16	Y16	Z16	X17	Y17	Z17	X18	Y18	Z18	
58	0.483333	72.7134	3.30084	117.408	53.0455	-21.2737	108.332	41.4845	-38.0997	90.2716	46.8813	-56.2949	71.5964	79.0992	-14.0111	50.3087	62.3065	-39.2515	39.4667	55.5705	-64.9545	51.3927	106.392	-17.2021	45.3072	101.042	-40.0424	20.914	86.0841	-64.2653	7.49161	122.058	-23.1863	51.402	123.184	-43.6964	28.3712	112.324	-61.6849	12.609	140.998	-36.7759	67.805	142.144	-52.406	48.52	142.181	-70.3573	28.4579	131.998	-1.90233	98.5464	135.404	10.4753	125.772	106.362	20.038	105.437	
59	0.491667	76.5965	14.866	119.801	48.0004	-3.15943	111.674	39.3659	-22.6179	93.484	33.3214	-38.6661	80.3082	72.7783	-6.32256	52.9966	55.8809	-29.7063	45.202	42.9218	-54.7133	59.4078	99.5498	-20.6622	45.0995	88.3907	-39.9001	25.8921	72.2991	-61.0451	16.0644	117.295	-30.5804	54.0321	110.546	-49.1404	32.939	95.7751	-68.2708	19.9196	129.983	-43.9735	73.4739	127.079	-61.5717	55.7303	118.716	-76.9779	37.729	129.228	-6.59958	94.8003	138.292	7.5991	124.476	113.3	22.1481	104.974	
60	0.5	83.4127	33.0372	120.957	56.4083	17.5042	111.571	35.8217	6.31342	96.3865	23.3622	-9.86076	81.5665	74.6217	2.99538	51.0741	46.9432	-11.7557	47.788	27.0624	-27.7638	63.8846	96.1727	-11.6421	48.648	78.2099	-26.878	29.4213	53.6788	-51.7707	19.5516	108.478	-31.0385	53.4671	95.6449	-45.7825	37.0995	74.2158	-61.5323	23.8554	117.258	-46.1031	76.399	105.154	-59.1514	55.7929	97.9392	-77.9827	43.0614	131.206	-8.11343	96.0808	142.069	3.91046	122.267	120.909	24.3772	99.9958	
61	0.508333	97.827	42.7999	115.796	65.2468	41.7123	112.111	42.6097	33.2884	95.0668	31.5203	18.816	81.919	84.2703	19.4022	52.8609	52.8857	7.35526	47.1481	29.8914	3.61004	61.3069	98.1494	-7.83545	50.4488	75.1689	-15.2331	28.0088	47.6464	-25.968	19.7276	102.517	-21.8132	55.3448	88.0465	-33.4721	37.9164	63.0899	-44.0613	25.1236	105.442	-40.1641	73.0643	94.0542	-53.7217	61.338	76.9703	-67.1306	39.8413	129.83	-10.1742	96.0276	144.602	-1.24427	121.533	130.987	27.6734	100.047	
62	0.516667	115.08	53.5406	113.351	83.1268	57.9481	106.375	58.6385	55.7769	87.1787	43.1852	48.4006	75.0483	95.438	28.1162	50.5855	66.5277	27.6313	43.3889	37.8028	32.2386	57.6868	100.242	-0.104311	43.352	79.0553	-1.47648	26.6526	46.9542	-7.12186	16.8868	101.915	-16.8103	56.7803	82.3521	-20.369	33.0368	55.2019	-24.5566	19.7902	99.4792	-34.3065	76.8059	83.4888	-42.6478	58.1257	66.0865	-50.8363	39.9254	131.697	-6.93125	97.8302	147.155	-4.70053	123.811	139.809	24.8012	98.6939	
63	0.525	129.825	57.6295	109.942	101.358	68.7974	100.375	80.6184	74.8275	82.4254	60.6746	69.1387	65.9133	108.237	35.4446	46.9689	79.8999	48.8497	36.8503	53.4506	51.3268	54.6525	107.724	7.68939	43.8731	88.5322	8.93073	24.875	54.5511	11.4528	10.5314	104.097	-9.88346	55.4947	85.4206	-12.9993	33.2748	62.1192	-9.25916	18.0459	96.6142	-24.9403	75.0188	83.0236	-29.4438	57.7347	64.4427	-39.1596	39.1303	132.885	-7.1851	93.7105	146.855	-4.7515	124.328	149.114	25.2328	98.0182	
64	0.533333	146.197	52.8131	113.581	120.271	72.8791	94.4068	103.848	81.9176	79.0095	84.8877	77.0316	58.8781	127.983	38.7702	43.6318	98.6685	55.1454	32.3561	74.1834	63.9678	47.5843	120.713	11.6185	39.5451	99.2085	12.334	19.7911	75.0536	24.1369	3.40014	110.826	-7.03896	51.6249	91.1485	-8.88822	25.7244	75.1156	-0.264473	10.9116	99.0692	-18.865	69.7054	83.1477	-24.7361	51.3481	65.685	-31.1132	34.4586	133.704	-10.1373	93.467	146.878	-10.5235	123.498	157.424	16.4771	100.877	
65	0.541667	159.096	44.6781	110.687	137.706	62.7686	93.3004	125.576	75.0049	72.6036	108.764	73.9513	54.4921	144.211	28.3219	42.3641	117.788	44.6256	28.9746	97.1487	60.3481	38.4094	131.061	-0.813637	36.5447	116.437	5.96296	16.3686	96.9972	20.3853	-2.01488	121.938	-12.0109	46.8489	108.023	-11.3157	23.5977	90.7578	-1.35151	2.44773	105.461	-22.6391	65.2996	88.2681	-27.2673	45.9877	75.6934	-28.0149	27.9478	139.828	-17.1634	96.7258	149.493	-16.0014	126.03	165.565	2.53357	99.7784	
66	0.55	171.279	31.6828	110.322	153.543	50.7251	91.5218	143.967	62.312	64.7368	129.3	59.7957	46.9954	158.355	11.8086	40.3482	143.666	29.8463	24.1621	118.217	51.9169	32.3901	149.042	-15.5684	40.7046	136.291	-10.802	13.7621	116.099	4.09738	-8.89729	133.897	-29.0621	46.0969	122.06	-27.599	20.1628	110.944	-17.4157	0.0349995	115.852	-34.2312	65.7608	103.995	-37.7224	47.549	85.9829	-39.768	23.7871	145.161	-31.5566	95.6853	150.955	-28.137	126.435	173.705	-10.0792	106.395	
67	0.558333	184.027	16.3086	112.523	168.55	33.9976	88.9326	160.044	40.1814	62.3544	149.975	42.8137	42.7191	177.388	-9.49827	43.3401	163.884	10.2383	24.6868	139.167	29.3184	27.6877	168.706	-35.2277	40.1948	157.676	-34.5023	16.3486	142.679	-22.611	-8.29472	149.923	-48.0959	54.7966	143.647	-49.9754	26.41	132.435	-40.7501	0.817912	127.567	-51.7899	68.9646	119.56	-56.903	42.6843	105.958	-59.9885	23.4294	157.041	-44.9259	102.922	157.646	-43.4484	133.886	186.442	-25.8342	109.181	
68	0.566667	192.796	3.12184	115.607	180.663	18.784	91.3701	177.42	29.9769	62.2085	167.915	26.5972	40.0712	194.029	-28.0127	50.9752	181.689	-12.862	27.7484	162.936	11.5471	25.0552	181.803	-56.7881	46.8113	175.557	-54.5654	21.906	164.484	-44.299	-6.32125	163.26	-65.9695	58.5737	161.544	-67.7659	30.9932	154.273	-59.892	0.798686	141.852	-66.0676	70.4855	135.884	-71.6768	50.7408	125.656	-77.6601	22.3295	167.876	-56.5274	108.323	164.729	-53.2434	135.188	191.579	-41.5038	116.287	
69	0.575	200.072	-6.88357	116.851	191.194	10.7813	93.0159	188.834	17.509	62.0741	180.997	15.7187	43.4375	211.291	-34.5187	53.5926	199.904	-20.476	32.0612	179.997	0.165709	25.8181	199.613	-64.4925	56.1607	196.801	-64.466	27.9508	182.629	-57.7753	-1.08065	179.427	-73.6366	65.8058	179.927	-77.5337	38.1539	170.34	-74.2854	7.55736	158.866	-75.2624	73.096	148.434	-84.2233	55.6014	142.64	-89.9007	30.2714	176.739	-65.8541	111.638	176.247	-55.3237	143.171	203.19	-42.8112	126.39	
70	0.583333	205.653	-3.2117	122.935	195.87	11.3755	93.286	195.173	20.137	65.1152	188.478	14.0033	42.6979	221.131	-34.7467	57.5817	212.009	-19.7882	36.1413	189.3	1.8906	27.8922	212.515	-64.9168	62.7758	215.376	-63.3669	35.4263	203.044	-60.0001	5.93228	197.875	-72.0852	69.6414	199.188	-78.9945	42.9884	195.827	-75.216	13.4319	176.005	-78.4296	77.1669	169.706	-88.483	54.5998	168.511	-94.6773	34.1966	189.109	-64.6934	114.745	185.515	-56.2227	142.819	213.844	-43.3993	129.861	
71	0.591667	208.297	4.93099	123.008	197.65	21.0917	95.6341	193.779	20.8039	65.9981	189.489	17.2318	40.8589	232.405	-24.3925	63.3096	217.235	-14.0961	38.1442	198.54	1.97307	28.7283	229.65	-53.1456	63.0364	229.533	-54.9126	37.9701	220.308	-49.4901	4.53041	213.181	-66.2617	70.7357	212.396	-73.9031	45.2445	212.331	-69.1844	13.0766	188.719	-73.2692	80.9819	190.54	-83.0154	59.6	187.874	-90.773	36.5534	201.527	-59.3386	121.214	193.833	-48.6047	149.95	218.704	-30.4038	134.958	
72	0.6	205.822	14.5929	126.278	195.202	26.2065	92.4801	192.737	27.8201	65.2568	188.87	21.7999	41.9839	235.511	-14.8739	67.1305	221.005	-4.24898	37.785	196.669	7.11383	27.9753	235.685	-41.895	65.6885	235.268	-45.7992	37.1091	229.424	-40.1863	9.05503	222.462	-55.1275	74.0363	227.209	-60.0055	44.1028	221.162	-60.454	15.1341	200.458	-64.1927	81.9785	202.876	-75.209	55.5225	201.012	-86.0535	31.5423	209.085	-49.5448	121.585	199.989	-44.0317	145.609	225.163	-18.9438	131.695	
73	0.608333	202.317	24.2262	120.353	188.58	38.7398	91.7482	185.85	36.7335	64.4555	184.997	31.3169	41.2918	235.087	1.0082	63.5859	222.845	11.8138	37.4456	198.058	17.3574	24.9466	238.142	-26.8503	64.3568	237.902	-30.0945	38.1394	230.843	-26.7804	7.06981	225.919	-41.6032	72.3717	230.087	-51.013	41.9836	226.047	-47.2397	13.5555	203.68	-55.4806	78.7594	205.581	-67.1402	54.4223	208.867	-74.8047	27.895	211.75	-36.0907	116.439	200.272	-31.3878	145.692	221.53	-5.88192	132.404	
